<svg width="17" height="15" viewBox="0 0 17 15" fill="none" xmlns="http://www.w3.org/2000/svg">
  <path d="M8.24629 7.36696V9.33844L8.56751 9.10476V7.36766C8.56751 7.30424 8.61921 7.25255 8.68331 7.25255H11.1076L11.5481 6.93132L8.68262 6.93063C8.44136 6.93063 8.24628 7.12641 8.24628 7.36698L8.24629 7.36696Z" fill="#D62828"/>
  <path d="M8.68269 3.2966H13.1316C13.3729 3.2966 13.5686 3.10014 13.5686 2.85956L13.5693 0.621258C13.5693 0.379993 13.3735 0.183533 13.1323 0.183533H8.68267C8.44141 0.183533 8.24564 0.379993 8.24564 0.621258V2.85885C8.24633 3.09943 8.44141 3.29658 8.68267 3.29658L8.68269 3.2966ZM8.56757 2.54111L10.9615 0.785407L12.5656 2.97465L8.68259 2.97396C8.61849 2.97396 8.56679 2.92226 8.56679 2.85816L8.56757 2.54111Z" fill="#D62828"/>
  <path d="M15.8806 3.58413H11.431C11.1897 3.58413 10.994 3.78059 10.994 4.02117V6.25876C10.994 6.49934 11.1897 6.69649 11.431 6.69649H11.8694L12.3099 6.37527H11.431C11.3676 6.37527 11.3152 6.32288 11.3152 6.25946V4.02186C11.3152 3.95776 11.3683 3.90537 11.431 3.90537H13.2474L15.0569 6.37519H15.0396L15.2726 6.69642H15.8806C16.1219 6.69642 16.3183 6.49927 16.3183 6.25869L16.319 4.0218C16.319 3.78054 16.1219 3.58408 15.8806 3.58408L15.8806 3.58413Z" fill="#D62828"/>
  <path d="M7.37773 9.97129L8.07325 9.46464V7.36698C8.07325 7.12572 7.87748 6.93063 7.63553 6.93063H3.18592C2.94466 6.93063 2.7482 7.12641 2.7482 7.36698V9.60528C2.7482 9.84655 2.94466 10.0423 3.18592 10.0423H7.29918C7.32538 10.0189 7.34881 9.99269 7.37776 9.97132L7.37773 9.97129ZM7.63553 7.25194C7.69895 7.25194 7.75202 7.30364 7.75202 7.36706V9.60536C7.75202 9.66878 7.69895 9.72117 7.63553 9.72117H6.09145L4.28266 7.25205L7.63553 7.25194Z" fill="#D62828"/>
  <path d="M10.3838 3.58414H5.93425C5.69298 3.58414 5.49652 3.7806 5.49652 4.02117V6.25877C5.49652 6.49935 5.69229 6.69649 5.93425 6.69649H10.3838C10.6251 6.69649 10.8216 6.49935 10.8216 6.25877V4.02188C10.8216 3.78061 10.6244 3.58415 10.3838 3.58415V3.58414ZM10.5003 6.25866C10.5003 6.32277 10.4473 6.37447 10.3832 6.37447L5.93426 6.37516C5.87016 6.37516 5.81846 6.32277 5.81846 6.25935V4.55465L6.70423 3.90531H10.3839C10.448 3.90531 10.5011 3.9577 10.5011 4.0218L10.5003 6.25866Z" fill="#D62828"/>
  <path d="M3.18594 3.2966H7.63554C7.87749 3.2966 8.07326 3.10014 8.07326 2.85956L8.07257 0.621258C8.07257 0.379993 7.8768 0.183533 7.63485 0.183533H3.18596C2.94469 0.183533 2.74823 0.379993 2.74823 0.621258V2.85885C2.74823 3.09943 2.94469 3.29658 3.18596 3.29658L3.18594 3.2966Z" fill="#D62828"/>
  <path d="M5.32505 6.2586V4.02171C5.32505 3.78045 5.12859 3.58467 4.88664 3.58467L0.437037 3.58398C0.195772 3.58398 0 3.78044 0 4.02102V6.25862C0 6.49919 0.195772 6.69634 0.437037 6.69634H4.88593C5.12789 6.69634 5.32503 6.49919 5.32503 6.25862L5.32505 6.2586ZM3.53356 6.22827L5.00388 5.15085V6.25859C5.00388 6.32269 4.95149 6.37439 4.8867 6.37439L3.6404 6.37508L3.53356 6.22827Z" fill="#D62828"/>
  <path d="M15.5953 14.2878L12.6499 10.185L15.1624 8.35131C15.385 8.18863 15.434 7.87706 15.2727 7.65372L14.267 6.26474C14.1891 6.1572 14.0719 6.08483 13.9395 6.06346C13.8072 6.04278 13.6728 6.07518 13.5652 6.15514L7.71007 10.4247C7.48742 10.5874 7.43778 10.9004 7.60046 11.1237L8.60412 12.5113C8.68339 12.6195 8.80127 12.6926 8.93293 12.7133C8.95912 12.7174 8.98601 12.7195 9.01151 12.7195C9.11698 12.7195 9.22107 12.6857 9.30861 12.6216L11.917 10.7205L14.859 14.8165L15.5953 14.2878Z" fill="#D62828"/>
</svg>
