<svg width="17" height="13" viewBox="0 0 17 13" fill="none" xmlns="http://www.w3.org/2000/svg">
  <path d="M0.32006 7.63813H3.57368C3.7506 7.63813 3.89376 7.49448 3.89376 7.31857L3.89325 5.68188C3.89325 5.50546 3.7501 5.36181 3.57318 5.36181H0.320072C0.143655 5.36181 0 5.50546 0 5.68188V7.31805C0 7.49396 0.143655 7.63812 0.320072 7.63812L0.32006 7.63813Z" fill="#D62828"/>
  <path d="M0.32006 12.6692H3.57368C3.7506 12.6692 3.89376 12.5255 3.89376 12.3496L3.89325 10.7129C3.89325 10.5365 3.7501 10.3929 3.57318 10.3929H0.320072C0.143655 10.3929 0 10.5365 0 10.7129V12.3491C0 12.525 0.143655 12.6692 0.320072 12.6692L0.32006 12.6692Z" fill="#D62828"/>
  <path d="M2.39104 5.12257H5.64467C5.82159 5.12257 5.96474 4.97892 5.96474 4.803L5.96424 3.16632C5.96424 2.9899 5.82108 2.84624 5.64416 2.84624H2.39106C2.21464 2.84624 2.07098 2.9899 2.07098 3.16632V4.80249C2.07098 4.9784 2.21464 5.12256 2.39106 5.12256L2.39104 5.12257Z" fill="#D62828"/>
  <path d="M0.32006 2.60713H3.57368C3.7506 2.60713 3.89376 2.46347 3.89376 2.28756L3.89325 0.650875C3.89325 0.474458 3.7501 0.330803 3.57318 0.330803H0.320072C0.143655 0.330803 0 0.474458 0 0.650875V2.28704C0 2.46296 0.143655 2.60712 0.320072 2.60712L0.32006 2.60713Z" fill="#D62828"/>
  <path d="M2.39104 10.1536H5.64467C5.82159 10.1536 5.96474 10.0099 5.96474 9.83401L5.96424 8.19732C5.96424 8.02091 5.82108 7.87725 5.64416 7.87725H2.39106C2.21464 7.87725 2.07098 8.02091 2.07098 8.19732V9.83349C2.07098 10.0094 2.21464 10.1536 2.39106 10.1536L2.39104 10.1536Z" fill="#D62828"/>
  <path d="M0.32006 10.1536H1.4892C1.66612 10.1536 1.80928 10.0099 1.80928 9.83401L1.80877 8.19732C1.80877 8.02091 1.66562 7.87725 1.4887 7.87725H0.320072C0.143655 7.87725 0 8.02091 0 8.19732V9.83349C0 10.0094 0.143643 10.1536 0.32006 10.1536Z" fill="#D62828"/>
  <path d="M0.32006 5.12257H1.4892C1.66612 5.12257 1.80928 4.97892 1.80928 4.803L1.80877 3.16632C1.80877 2.9899 1.66562 2.84624 1.4887 2.84624H0.320072C0.143655 2.84624 0 2.9899 0 3.16632V4.80249C0 4.9784 0.143643 5.12257 0.32006 5.12257Z" fill="#D62828"/>
  <path d="M6.53301 10.1536H9.78664C9.96356 10.1536 10.1067 10.0099 10.1067 9.83401L10.1062 8.19732C10.1062 8.02091 9.96305 7.87725 9.78613 7.87725H6.53302C6.35661 7.87725 6.21295 8.02091 6.21295 8.19732V9.83349C6.21295 10.0094 6.35661 10.1536 6.53302 10.1536L6.53301 10.1536Z" fill="#D62828"/>
  <path d="M10.6746 10.1536H13.9283C14.1052 10.1536 14.2483 10.0099 14.2483 9.83401L14.2478 8.19732C14.2478 8.02091 14.1047 7.87725 13.9278 7.87725H10.6747C10.4982 7.87725 10.3546 8.02091 10.3546 8.19732V9.83349C10.3546 10.0094 10.4982 10.1536 10.6747 10.1536L10.6746 10.1536Z" fill="#D62828"/>
  <path d="M4.46203 7.63813H7.71565C7.89257 7.63813 8.03572 7.49448 8.03572 7.31857L8.03522 5.68188C8.03522 5.50546 7.89207 5.36181 7.71515 5.36181H4.46204C4.28562 5.36181 4.14197 5.50546 4.14197 5.68188V7.31805C4.14197 7.49396 4.28562 7.63812 4.46204 7.63812L4.46203 7.63813Z" fill="#D62828"/>
  <path d="M8.60366 7.63813H11.8573C12.0342 7.63813 12.1774 7.49448 12.1774 7.31857L12.1769 5.68188C12.1769 5.50546 12.0337 5.36181 11.8568 5.36181H8.60367C8.42725 5.36181 8.2836 5.50546 8.2836 5.68188V7.31805C8.2836 7.49396 8.42725 7.63812 8.60367 7.63812L8.60366 7.63813Z" fill="#D62828"/>
  <path d="M4.46203 12.6692H7.71565C7.89257 12.6692 8.03572 12.5255 8.03572 12.3496L8.03522 10.7129C8.03522 10.5365 7.89207 10.3929 7.71515 10.3929H4.46204C4.28562 10.3929 4.14197 10.5365 4.14197 10.7129V12.3491C4.14197 12.525 4.28562 12.6692 4.46204 12.6692L4.46203 12.6692Z" fill="#D62828"/>
  <path d="M8.60366 12.6692H11.8573C12.0342 12.6692 12.1774 12.5255 12.1774 12.3496L12.1769 10.7129C12.1769 10.5365 12.0337 10.3929 11.8568 10.3929H8.60367C8.42725 10.3929 8.2836 10.5365 8.2836 10.7129V12.3491C8.2836 12.525 8.42725 12.6692 8.60367 12.6692L8.60366 12.6692Z" fill="#D62828"/>
  <path d="M12.7453 12.6692H15.9989C16.1758 12.6692 16.319 12.5255 16.319 12.3496L16.3185 10.7129C16.3185 10.5365 16.1753 10.3929 15.9984 10.3929H12.7453C12.5689 10.3929 12.4252 10.5365 12.4252 10.7129V12.3491C12.4252 12.525 12.5689 12.6692 12.7453 12.6692L12.7453 12.6692Z" fill="#D62828"/>
</svg>
